<svg width="44" height="44" viewBox="0 0 44 44" fill="none" xmlns="http://www.w3.org/2000/svg">
<path d="M22 40.7C32.3278 40.7 40.7001 32.3277 40.7001 22C40.7001 11.6723 32.3278 3.3 22 3.3C11.6723 3.3 3.30005 11.6723 3.30005 22C3.30005 32.3277 11.6723 40.7 22 40.7Z" stroke="#A1B8BD" stroke-width="4" stroke-miterlimit="10"/>
<path d="M28.424 27.192L29.216 22.352H24.596V19.008C24.596 17.644 25.124 16.588 27.192 16.588H29.48V12.188C28.248 12.012 26.884 11.836 25.652 11.836C21.648 11.836 18.876 14.256 18.876 18.568V22.352H14.52V27.192H18.876V39.336C19.844 39.512 20.768 39.6 21.736 39.6C22.704 39.6 23.628 39.512 24.596 39.336V27.192H28.424Z" fill="#A1B8BD"/>
</svg>
