<svg width="44" height="44" viewBox="0 0 44 44" fill="none" xmlns="http://www.w3.org/2000/svg">
<path d="M22 40.7C32.3278 40.7 40.7001 32.3277 40.7001 22C40.7001 11.6723 32.3278 3.3 22 3.3C11.6723 3.3 3.30005 11.6723 3.30005 22C3.30005 32.3277 11.6723 40.7 22 40.7Z" stroke="#A1B8BD" stroke-width="4" stroke-miterlimit="10"/>
<path d="M22 13.992C24.596 13.992 24.948 13.992 25.96 14.08C26.928 14.124 27.412 14.3 27.808 14.388C28.248 14.52 28.6 14.784 28.952 15.136C29.26 15.444 29.524 15.84 29.7 16.28C29.832 16.588 30.008 17.16 30.008 18.128C30.052 19.14 30.096 19.492 30.096 22.088C30.096 24.684 30.096 25.036 30.008 26.048C29.964 27.016 29.788 27.5 29.7 27.896C29.392 28.732 28.732 29.436 27.852 29.744C27.544 29.876 26.972 30.052 26.004 30.052C24.992 30.096 24.64 30.14 22.044 30.14C19.448 30.14 19.096 30.14 18.084 30.052C17.116 30.008 16.632 29.832 16.236 29.744C15.796 29.612 15.444 29.348 15.092 28.996C14.784 28.688 14.52 28.292 14.344 27.852C14.212 27.544 14.036 26.972 14.036 26.004C13.992 24.992 13.948 24.64 13.948 22.044C13.948 19.448 13.948 19.096 14.036 18.084C14.08 17.116 14.256 16.632 14.344 16.236C14.476 15.796 14.74 15.444 15.092 15.092C15.444 14.74 15.796 14.52 16.236 14.344C16.544 14.212 17.116 14.036 18.084 14.036C19.052 13.992 19.404 13.992 22 13.992ZM22 12.232C19.36 12.232 19.008 12.232 17.952 12.32C16.94 12.364 16.192 12.54 15.576 12.76C14.916 13.024 14.344 13.376 13.86 13.904C13.332 14.388 12.98 14.96 12.716 15.62C12.452 16.236 12.32 16.94 12.276 17.996C12.232 19.008 12.188 19.404 12.188 22.044C12.188 24.684 12.188 25.036 12.276 26.092C12.32 27.104 12.496 27.852 12.716 28.468C12.98 29.128 13.332 29.7 13.86 30.184C14.344 30.712 14.916 31.064 15.576 31.328C16.192 31.592 16.896 31.724 17.952 31.768C18.964 31.812 19.36 31.856 22 31.856C24.64 31.856 24.992 31.856 26.048 31.768C27.06 31.724 27.808 31.548 28.424 31.328C29.744 30.8 30.756 29.788 31.284 28.468C31.548 27.852 31.68 27.148 31.724 26.092C31.768 25.08 31.812 24.684 31.812 22.044C31.812 19.404 31.812 19.052 31.724 17.996C31.68 16.984 31.504 16.236 31.284 15.62C31.02 14.96 30.668 14.388 30.14 13.904C29.656 13.376 29.084 13.024 28.424 12.76C27.808 12.496 27.104 12.364 26.048 12.32C24.992 12.232 24.64 12.232 22 12.232Z" fill="#A1B8BD"/>
<path d="M22 16.984C19.228 16.984 16.984 19.228 16.984 22C16.984 24.772 19.228 27.016 22 27.016C24.772 27.016 27.016 24.772 27.016 22C27.016 19.228 24.772 16.984 22 16.984ZM22 25.256C20.196 25.256 18.744 23.804 18.744 22C18.744 20.196 20.196 18.744 22 18.744C23.804 18.744 25.256 20.196 25.256 22C25.256 23.804 23.804 25.256 22 25.256Z" fill="#A1B8BD"/>
<path d="M27.192 17.996C27.8481 17.996 28.38 17.4641 28.38 16.808C28.38 16.1519 27.8481 15.62 27.192 15.62C26.5359 15.62 26.004 16.1519 26.004 16.808C26.004 17.4641 26.5359 17.996 27.192 17.996Z" fill="#A1B8BD"/>
</svg>
