<svg width="44" height="44" viewBox="0 0 44 44" fill="none" xmlns="http://www.w3.org/2000/svg">
<path d="M22 40.7C32.3278 40.7 40.7001 32.3277 40.7001 22C40.7001 11.6723 32.3278 3.3 22 3.3C11.6723 3.3 3.30005 11.6723 3.30005 22C3.30005 32.3277 11.6723 40.7 22 40.7Z" stroke="#A1B8BD" stroke-width="4" stroke-miterlimit="10"/>
<path d="M31.196 18.876C31.196 19.052 31.196 19.228 31.196 19.404C31.196 24.772 27.148 30.932 19.668 30.932C17.38 30.932 15.224 30.272 13.464 29.128C13.816 29.172 14.124 29.172 14.476 29.172C16.368 29.172 18.128 28.512 19.492 27.456C17.732 27.412 16.236 26.268 15.708 24.64C15.972 24.684 16.192 24.728 16.456 24.728C16.808 24.728 17.204 24.684 17.512 24.596C15.664 24.2 14.256 22.616 14.256 20.592V20.548C14.784 20.856 15.4 21.032 16.104 21.032C15.048 20.284 14.3 19.096 14.3 17.644C14.3 16.896 14.476 16.192 14.828 15.62C16.808 18.084 19.8 19.668 23.188 19.888C23.1 19.58 23.056 19.272 23.056 18.964C23.056 16.72 24.86 14.916 27.104 14.916C28.248 14.916 29.348 15.4 30.052 16.192C30.976 16.016 31.856 15.708 32.604 15.18C32.296 16.148 31.636 16.896 30.844 17.424C31.636 17.336 32.472 17.116 33.176 16.808C32.648 17.556 31.988 18.304 31.196 18.876Z" fill="#A1B8BD"/>
</svg>
