<svg width="44" height="44" viewBox="0 0 44 44" fill="none" xmlns="http://www.w3.org/2000/svg">
<path d="M31.68 19.492C31.504 19.492 31.328 19.536 31.152 19.536C29.216 19.536 27.412 18.568 26.312 16.94V25.828C26.312 29.436 23.364 32.384 19.756 32.384C16.148 32.384 13.2 29.436 13.2 25.784C13.2 22.132 16.148 19.228 19.756 19.228C19.888 19.228 20.02 19.228 20.152 19.228V22.44C20.02 22.44 19.888 22.396 19.756 22.396C17.908 22.396 16.412 23.892 16.412 25.74C16.412 27.588 17.908 29.084 19.756 29.084C21.604 29.084 23.232 27.632 23.232 25.784L23.276 10.692H26.356C26.664 13.464 28.864 15.62 31.68 15.84V19.492Z" fill="#888888"/>
</svg>
